<svg xmlns="http://www.w3.org/2000/svg" viewBox="0 0 512 512">
  <!-- タブ用。icon.svg と同じ形で、角を丸め、線を太くしてある（16pxまで縮むので） -->
  <rect width="512" height="512" rx="112" fill="#faf7f2"/>
  <g fill="none" stroke="#8c463c" stroke-width="24" stroke-linecap="round" stroke-linejoin="round">
    <path d="M 292.0 250.0 C 380.0 226.0 434.0 300.0 360.0 372.0"/>
    <path d="M 360.0 372.0 C 304.0 320.0 286.0 278.0 286.0 278.0"/>
    <path d="M 262.0 292.0 C 286.0 380.0 212.0 434.0 140.0 360.0"/>
    <path d="M 140.0 360.0 C 192.0 304.0 234.0 286.0 234.0 286.0"/>
    <path d="M 220.0 262.0 C 132.0 286.0 78.0 212.0 152.0 140.0"/>
    <path d="M 152.0 140.0 C 208.0 192.0 226.0 234.0 226.0 234.0"/>
    <path d="M 250.0 220.0 C 226.0 132.0 300.0 78.0 372.0 152.0"/>
    <path d="M 372.0 152.0 C 320.0 208.0 278.0 226.0 278.0 226.0"/>
    <circle cx="256" cy="256" r="17"/>
  </g>
</svg>
